<svg width="602" height="70" viewBox="0 0 602 70" fill="none" xmlns="http://www.w3.org/2000/svg">
<g clip-path="url(#clip0_1118_198)">
<path d="M47.5166 52.8991H44.6924V35.6368H47.5166V32.1787H2.4846V35.6368H5.31134V52.899H2.4846V56.1663H0V60.0002H50V56.1663H47.5166V52.8991ZM16.4973 52.8991H11.1428V35.6368H16.4973V52.8991ZM27.6802 52.8991H22.321V35.6368H27.6802V52.8991ZM38.8628 52.8991H33.5093V35.6368H38.8628V52.8991Z" fill="#EBEBEB"/>
<path d="M25.0022 10L0 28.0275V29.6456H50V28.0275L25.0022 10ZM33.7481 24.0263H16.252V23.4617L25.0022 17.1538L33.7481 23.4617V24.0264V24.0263Z" fill="#DAB466"/>
</g>
<path d="M108.832 48.352C107.189 48.352 105.653 48.0533 104.224 47.456C102.816 46.8587 101.579 46.0373 100.512 44.992C99.4667 43.9253 98.6453 42.688 98.048 41.28C97.4507 39.8507 97.152 38.3253 97.152 36.704C97.152 35.0827 97.44 33.5787 98.016 32.192C98.6133 30.784 99.4347 29.5573 100.48 28.512C101.547 27.4453 102.784 26.624 104.192 26.048C105.6 25.4507 107.125 25.152 108.768 25.152C110.432 25.152 111.968 25.4507 113.376 26.048C114.784 26.624 116.011 27.4453 117.056 28.512C118.123 29.5573 118.955 30.784 119.552 32.192C120.149 33.6 120.448 35.1147 120.448 36.736C120.448 38.3573 120.149 39.872 119.552 41.28C118.955 42.688 118.123 43.9253 117.056 44.992C116.011 46.0373 114.784 46.8587 113.376 47.456C111.989 48.0533 110.475 48.352 108.832 48.352ZM108.768 44.288C110.219 44.288 111.477 43.968 112.544 43.328C113.611 42.688 114.443 41.8027 115.04 40.672C115.659 39.5413 115.968 38.2187 115.968 36.704C115.968 35.5947 115.797 34.5813 115.456 33.664C115.115 32.7467 114.624 31.9573 113.984 31.296C113.344 30.6133 112.587 30.0907 111.712 29.728C110.837 29.3653 109.856 29.184 108.768 29.184C107.36 29.184 106.112 29.504 105.024 30.144C103.957 30.7627 103.115 31.6373 102.496 32.768C101.899 33.8987 101.6 35.2107 101.6 36.704C101.6 37.8347 101.771 38.8693 102.112 39.808C102.475 40.7467 102.965 41.5467 103.584 42.208C104.224 42.8693 104.981 43.3813 105.856 43.744C106.752 44.1067 107.723 44.288 108.768 44.288ZM133.85 48V39.136C133.85 38.2187 133.562 37.472 132.986 36.896C132.41 36.32 131.663 36.032 130.746 36.032C130.148 36.032 129.615 36.16 129.146 36.416C128.676 36.672 128.303 37.0347 128.026 37.504C127.77 37.9733 127.642 38.5173 127.642 39.136L126.01 38.304C126.01 37.088 126.266 36.032 126.778 35.136C127.311 34.2187 128.036 33.504 128.954 32.992C129.892 32.48 130.948 32.224 132.122 32.224C133.252 32.224 134.266 32.512 135.162 33.088C136.058 33.6427 136.762 34.3787 137.274 35.296C137.786 36.192 138.042 37.1627 138.042 38.208V48H133.85ZM123.45 48V32.544H127.642V48H123.45ZM148.811 48.32C147.189 48.32 145.749 47.9787 144.491 47.296C143.232 46.592 142.229 45.632 141.483 44.416C140.757 43.2 140.395 41.8133 140.395 40.256C140.395 38.72 140.747 37.3547 141.451 36.16C142.176 34.944 143.157 33.984 144.395 33.28C145.632 32.5547 147.008 32.192 148.523 32.192C150.016 32.192 151.328 32.5333 152.459 33.216C153.611 33.8773 154.507 34.7947 155.147 35.968C155.808 37.12 156.139 38.432 156.139 39.904C156.139 40.1813 156.117 40.4693 156.075 40.768C156.053 41.0453 156 41.3653 155.915 41.728L142.923 41.76V38.624L153.963 38.592L152.267 39.904C152.224 38.9867 152.053 38.2187 151.755 37.6C151.477 36.9813 151.061 36.512 150.507 36.192C149.973 35.8507 149.312 35.68 148.523 35.68C147.691 35.68 146.965 35.872 146.347 36.256C145.728 36.6187 145.248 37.1413 144.907 37.824C144.587 38.4853 144.427 39.2747 144.427 40.192C144.427 41.1307 144.597 41.952 144.939 42.656C145.301 43.3387 145.813 43.872 146.475 44.256C147.136 44.6187 147.904 44.8 148.779 44.8C149.568 44.8 150.283 44.672 150.923 44.416C151.563 44.1387 152.117 43.7333 152.587 43.2L155.051 45.664C154.304 46.5387 153.387 47.2 152.299 47.648C151.232 48.096 150.069 48.32 148.811 48.32ZM164.043 48.352C163.168 48.352 162.304 48.2347 161.451 48C160.619 47.7653 159.851 47.4453 159.147 47.04C158.443 46.6133 157.835 46.1013 157.323 45.504L159.819 42.976C160.352 43.5733 160.971 44.0213 161.675 44.32C162.379 44.6187 163.158 44.768 164.011 44.768C164.694 44.768 165.206 44.672 165.547 44.48C165.91 44.288 166.091 44 166.091 43.616C166.091 43.1893 165.899 42.8587 165.515 42.624C165.152 42.3893 164.672 42.1973 164.075 42.048C163.478 41.8773 162.848 41.696 162.187 41.504C161.547 41.2907 160.928 41.024 160.331 40.704C159.734 40.3627 159.243 39.904 158.859 39.328C158.496 38.7307 158.315 37.9627 158.315 37.024C158.315 36.0427 158.55 35.1893 159.019 34.464C159.51 33.7387 160.203 33.1733 161.099 32.768C161.995 32.3627 163.051 32.16 164.267 32.16C165.547 32.16 166.699 32.384 167.723 32.832C168.768 33.28 169.632 33.952 170.315 34.848L167.787 37.376C167.318 36.8 166.784 36.384 166.187 36.128C165.611 35.872 164.982 35.744 164.299 35.744C163.68 35.744 163.2 35.84 162.859 36.032C162.539 36.224 162.379 36.4907 162.379 36.832C162.379 37.216 162.56 37.5147 162.923 37.728C163.307 37.9413 163.798 38.1333 164.395 38.304C164.992 38.4533 165.611 38.6347 166.251 38.848C166.912 39.04 167.531 39.3173 168.107 39.68C168.704 40.0427 169.184 40.5227 169.547 41.12C169.931 41.7173 170.123 42.4853 170.123 43.424C170.123 44.9387 169.579 46.144 168.491 47.04C167.403 47.9147 165.92 48.352 164.043 48.352ZM172.95 48V32.544H177.142V48H172.95ZM183.03 48V38.88C183.03 37.984 182.742 37.2907 182.166 36.8C181.611 36.288 180.918 36.032 180.086 36.032C179.531 36.032 179.03 36.1493 178.582 36.384C178.134 36.5973 177.782 36.9173 177.526 37.344C177.27 37.7707 177.142 38.2827 177.142 38.88L175.51 38.08C175.51 36.8853 175.766 35.8507 176.278 34.976C176.811 34.1013 177.526 33.4293 178.422 32.96C179.318 32.4693 180.331 32.224 181.462 32.224C182.528 32.224 183.499 32.4693 184.374 32.96C185.248 33.4293 185.942 34.1013 186.454 34.976C186.966 35.8293 187.222 36.864 187.222 38.08V48H183.03ZM193.11 48V38.88C193.11 37.984 192.822 37.2907 192.246 36.8C191.691 36.288 190.998 36.032 190.166 36.032C189.632 36.032 189.131 36.1493 188.662 36.384C188.214 36.5973 187.862 36.9173 187.606 37.344C187.35 37.7707 187.222 38.2827 187.222 38.88L184.822 38.304C184.907 37.0667 185.238 36 185.814 35.104C186.39 34.1867 187.147 33.4827 188.086 32.992C189.024 32.48 190.07 32.224 191.222 32.224C192.374 32.224 193.408 32.4693 194.326 32.96C195.243 33.4293 195.968 34.112 196.502 35.008C197.035 35.904 197.302 36.9707 197.302 38.208V48H193.11ZM207.292 48.32C205.926 48.32 204.71 48.032 203.644 47.456C202.598 46.88 201.777 46.08 201.18 45.056C200.582 44.032 200.284 42.848 200.284 41.504V32.544H204.508V41.408C204.508 42.048 204.614 42.6027 204.828 43.072C205.041 43.52 205.361 43.8613 205.788 44.096C206.214 44.3307 206.716 44.448 207.292 44.448C208.166 44.448 208.849 44.1813 209.34 43.648C209.83 43.1147 210.076 42.368 210.076 41.408V32.544H214.268V41.504C214.268 42.8693 213.969 44.064 213.372 45.088C212.796 46.112 211.974 46.912 210.908 47.488C209.862 48.0427 208.657 48.32 207.292 48.32ZM222.918 48.352C222.043 48.352 221.179 48.2347 220.326 48C219.494 47.7653 218.726 47.4453 218.022 47.04C217.318 46.6133 216.71 46.1013 216.198 45.504L218.694 42.976C219.227 43.5733 219.846 44.0213 220.55 44.32C221.254 44.6187 222.033 44.768 222.886 44.768C223.569 44.768 224.081 44.672 224.422 44.48C224.785 44.288 224.966 44 224.966 43.616C224.966 43.1893 224.774 42.8587 224.39 42.624C224.027 42.3893 223.547 42.1973 222.95 42.048C222.353 41.8773 221.723 41.696 221.062 41.504C220.422 41.2907 219.803 41.024 219.206 40.704C218.609 40.3627 218.118 39.904 217.734 39.328C217.371 38.7307 217.19 37.9627 217.19 37.024C217.19 36.0427 217.425 35.1893 217.894 34.464C218.385 33.7387 219.078 33.1733 219.974 32.768C220.87 32.3627 221.926 32.16 223.142 32.16C224.422 32.16 225.574 32.384 226.598 32.832C227.643 33.28 228.507 33.952 229.19 34.848L226.662 37.376C226.193 36.8 225.659 36.384 225.062 36.128C224.486 35.872 223.857 35.744 223.174 35.744C222.555 35.744 222.075 35.84 221.734 36.032C221.414 36.224 221.254 36.4907 221.254 36.832C221.254 37.216 221.435 37.5147 221.798 37.728C222.182 37.9413 222.673 38.1333 223.27 38.304C223.867 38.4533 224.486 38.6347 225.126 38.848C225.787 39.04 226.406 39.3173 226.982 39.68C227.579 40.0427 228.059 40.5227 228.422 41.12C228.806 41.7173 228.998 42.4853 228.998 43.424C228.998 44.9387 228.454 46.144 227.366 47.04C226.278 47.9147 224.795 48.352 222.918 48.352ZM238.523 48V25.504H242.875V48H238.523ZM241.723 48V44.128H253.179V48H241.723ZM261.914 48.32C260.506 48.32 259.236 47.968 258.106 47.264C256.975 46.56 256.09 45.6 255.45 44.384C254.81 43.168 254.49 41.8027 254.49 40.288C254.49 38.752 254.81 37.376 255.45 36.16C256.09 34.944 256.975 33.984 258.106 33.28C259.236 32.576 260.506 32.224 261.914 32.224C263.023 32.224 264.015 32.448 264.89 32.896C265.764 33.344 266.458 33.9733 266.97 34.784C267.503 35.5733 267.791 36.4693 267.834 37.472V43.04C267.791 44.064 267.503 44.9707 266.97 45.76C266.458 46.5493 265.764 47.1787 264.89 47.648C264.015 48.096 263.023 48.32 261.914 48.32ZM262.682 44.448C263.855 44.448 264.804 44.064 265.53 43.296C266.255 42.5067 266.618 41.4933 266.618 40.256C266.618 39.4453 266.447 38.7307 266.106 38.112C265.786 37.472 265.327 36.9813 264.73 36.64C264.154 36.2773 263.471 36.096 262.682 36.096C261.914 36.096 261.231 36.2773 260.634 36.64C260.058 36.9813 259.599 37.472 259.258 38.112C258.938 38.7307 258.778 39.4453 258.778 40.256C258.778 41.088 258.938 41.824 259.258 42.464C259.599 43.0827 260.058 43.5733 260.634 43.936C261.231 44.2773 261.914 44.448 262.682 44.448ZM266.394 48V43.84L267.066 40.064L266.394 36.352V32.544H270.554V48H266.394ZM284.662 48V39.136C284.662 38.2187 284.374 37.472 283.798 36.896C283.222 36.32 282.476 36.032 281.558 36.032C280.961 36.032 280.428 36.16 279.958 36.416C279.489 36.672 279.116 37.0347 278.838 37.504C278.582 37.9733 278.454 38.5173 278.454 39.136L276.822 38.304C276.822 37.088 277.078 36.032 277.59 35.136C278.124 34.2187 278.849 33.504 279.766 32.992C280.705 32.48 281.761 32.224 282.934 32.224C284.065 32.224 285.078 32.512 285.974 33.088C286.87 33.6427 287.574 34.3787 288.086 35.296C288.598 36.192 288.854 37.1627 288.854 38.208V48H284.662ZM274.262 48V32.544H278.454V48H274.262ZM298.695 54.848C297.052 54.848 295.602 54.5493 294.343 53.952C293.084 53.376 292.082 52.5547 291.335 51.488L293.991 48.832C294.588 49.536 295.25 50.0693 295.975 50.432C296.722 50.816 297.618 51.008 298.663 51.008C299.964 51.008 300.988 50.6773 301.735 50.016C302.503 49.3547 302.887 48.4373 302.887 47.264V43.392L303.591 40L302.919 36.608V32.544H307.079V47.2C307.079 48.736 306.716 50.0693 305.991 51.2C305.287 52.352 304.306 53.248 303.047 53.888C301.788 54.528 300.338 54.848 298.695 54.848ZM298.503 47.584C297.116 47.584 295.868 47.2533 294.759 46.592C293.65 45.9093 292.775 44.9813 292.135 43.808C291.516 42.6347 291.207 41.3227 291.207 39.872C291.207 38.4213 291.516 37.12 292.135 35.968C292.775 34.816 293.65 33.9093 294.759 33.248C295.868 32.5653 297.116 32.224 298.503 32.224C299.655 32.224 300.668 32.448 301.543 32.896C302.439 33.344 303.143 33.9627 303.655 34.752C304.167 35.52 304.444 36.4267 304.487 37.472V42.336C304.444 43.36 304.156 44.2773 303.623 45.088C303.111 45.8773 302.407 46.496 301.511 46.944C300.636 47.3707 299.634 47.584 298.503 47.584ZM299.335 43.776C300.103 43.776 300.764 43.616 301.319 43.296C301.895 42.9547 302.343 42.496 302.663 41.92C302.983 41.3227 303.143 40.6507 303.143 39.904C303.143 39.136 302.983 38.464 302.663 37.888C302.343 37.312 301.895 36.864 301.319 36.544C300.764 36.2027 300.103 36.032 299.335 36.032C298.567 36.032 297.895 36.2027 297.319 36.544C296.743 36.864 296.295 37.3227 295.975 37.92C295.655 38.496 295.495 39.1573 295.495 39.904C295.495 40.6293 295.655 41.2907 295.975 41.888C296.295 42.464 296.743 42.9227 297.319 43.264C297.895 43.6053 298.567 43.776 299.335 43.776ZM317.226 48.32C315.818 48.32 314.549 47.968 313.418 47.264C312.288 46.56 311.402 45.6 310.762 44.384C310.122 43.168 309.802 41.8027 309.802 40.288C309.802 38.752 310.122 37.376 310.762 36.16C311.402 34.944 312.288 33.984 313.418 33.28C314.549 32.576 315.818 32.224 317.226 32.224C318.336 32.224 319.328 32.448 320.202 32.896C321.077 33.344 321.77 33.9733 322.282 34.784C322.816 35.5733 323.104 36.4693 323.146 37.472V43.04C323.104 44.064 322.816 44.9707 322.282 45.76C321.77 46.5493 321.077 47.1787 320.202 47.648C319.328 48.096 318.336 48.32 317.226 48.32ZM317.994 44.448C319.168 44.448 320.117 44.064 320.842 43.296C321.568 42.5067 321.93 41.4933 321.93 40.256C321.93 39.4453 321.76 38.7307 321.418 38.112C321.098 37.472 320.64 36.9813 320.042 36.64C319.466 36.2773 318.784 36.096 317.994 36.096C317.226 36.096 316.544 36.2773 315.946 36.64C315.37 36.9813 314.912 37.472 314.57 38.112C314.25 38.7307 314.09 39.4453 314.09 40.256C314.09 41.088 314.25 41.824 314.57 42.464C314.912 43.0827 315.37 43.5733 315.946 43.936C316.544 44.2773 317.226 44.448 317.994 44.448ZM321.706 48V43.84L322.378 40.064L321.706 36.352V32.544H325.866V48H321.706ZM331.847 48V26.112H336.039V48H331.847ZM328.231 36.224V32.544H339.655V36.224H328.231ZM362.982 48L352.486 36.48C351.697 35.6053 351.11 34.7733 350.726 33.984C350.342 33.1733 350.15 32.288 350.15 31.328C350.15 30.1973 350.428 29.1627 350.982 28.224C351.558 27.2853 352.337 26.5387 353.318 25.984C354.321 25.4293 355.462 25.152 356.742 25.152C357.745 25.152 358.641 25.312 359.43 25.632C360.22 25.9307 360.902 26.3253 361.478 26.816C362.076 27.3067 362.556 27.8293 362.918 28.384L360.038 31.072C359.59 30.4533 359.11 29.9733 358.598 29.632C358.086 29.2693 357.489 29.088 356.806 29.088C356.081 29.088 355.473 29.3013 354.982 29.728C354.492 30.1547 354.246 30.688 354.246 31.328C354.246 31.9253 354.374 32.4373 354.63 32.864C354.886 33.2693 355.238 33.7387 355.686 34.272L367.942 48H362.982ZM355.462 48.32C353.926 48.32 352.582 48.0213 351.43 47.424C350.3 46.8267 349.414 46.016 348.774 44.992C348.156 43.9467 347.846 42.7627 347.846 41.44C347.846 40.0747 348.209 38.848 348.934 37.76C349.681 36.672 350.78 35.7867 352.23 35.104L354.118 37.792C353.393 38.1333 352.838 38.592 352.454 39.168C352.092 39.7227 351.91 40.416 351.91 41.248C351.91 41.888 352.06 42.4533 352.358 42.944C352.657 43.4133 353.084 43.7867 353.638 44.064C354.193 44.32 354.833 44.448 355.558 44.448C356.476 44.448 357.244 44.256 357.862 43.872C358.481 43.488 358.972 42.9973 359.334 42.4L362.15 45.472C361.724 45.984 361.169 46.4533 360.486 46.88C359.804 47.3067 359.036 47.6587 358.182 47.936C357.329 48.192 356.422 48.32 355.462 48.32ZM385.924 48.32C384.281 48.32 382.756 48.032 381.348 47.456C379.94 46.8587 378.702 46.0373 377.636 44.992C376.59 43.9253 375.78 42.688 375.204 41.28C374.649 39.872 374.372 38.3573 374.372 36.736C374.372 35.1147 374.649 33.6 375.204 32.192C375.78 30.784 376.59 29.5573 377.636 28.512C378.702 27.4667 379.929 26.6453 381.316 26.048C382.724 25.4507 384.26 25.152 385.924 25.152C387.716 25.152 389.294 25.4507 390.66 26.048C392.025 26.624 393.23 27.424 394.276 28.448L391.332 31.392C390.713 30.7093 389.956 30.176 389.06 29.792C388.164 29.408 387.118 29.216 385.924 29.216C384.878 29.216 383.918 29.3973 383.044 29.76C382.19 30.1013 381.444 30.6133 380.804 31.296C380.164 31.9573 379.673 32.7573 379.332 33.696C378.99 34.6133 378.82 35.6267 378.82 36.736C378.82 37.8667 378.99 38.8907 379.332 39.808C379.673 40.7253 380.164 41.5253 380.804 42.208C381.444 42.8693 382.19 43.3813 383.044 43.744C383.918 44.1067 384.878 44.288 385.924 44.288C387.182 44.288 388.26 44.096 389.156 43.712C390.073 43.328 390.841 42.784 391.46 42.08L394.404 45.024C393.358 46.0693 392.142 46.88 390.756 47.456C389.369 48.032 387.758 48.32 385.924 48.32ZM403.839 48.32C402.281 48.32 400.873 47.968 399.615 47.264C398.377 46.5387 397.385 45.568 396.639 44.352C395.913 43.1147 395.551 41.7387 395.551 40.224C395.551 38.7093 395.913 37.3547 396.639 36.16C397.364 34.944 398.356 33.984 399.615 33.28C400.873 32.5547 402.271 32.192 403.807 32.192C405.385 32.192 406.793 32.5547 408.031 33.28C409.289 33.984 410.281 34.944 411.007 36.16C411.732 37.3547 412.095 38.7093 412.095 40.224C412.095 41.7387 411.732 43.1147 411.007 44.352C410.281 45.568 409.289 46.5387 408.031 47.264C406.793 47.968 405.396 48.32 403.839 48.32ZM403.807 44.416C404.596 44.416 405.289 44.2453 405.887 43.904C406.505 43.5413 406.975 43.0507 407.295 42.432C407.636 41.792 407.807 41.0667 407.807 40.256C407.807 39.4453 407.636 38.7307 407.295 38.112C406.953 37.4933 406.484 37.0133 405.887 36.672C405.289 36.3093 404.596 36.128 403.807 36.128C403.039 36.128 402.356 36.3093 401.759 36.672C401.161 37.0133 400.692 37.4933 400.351 38.112C400.009 38.7307 399.839 39.4453 399.839 40.256C399.839 41.0667 400.009 41.792 400.351 42.432C400.692 43.0507 401.161 43.5413 401.759 43.904C402.356 44.2453 403.039 44.416 403.807 44.416ZM417.205 48.32C416.437 48.32 415.807 48.064 415.317 47.552C414.826 47.04 414.581 46.4107 414.581 45.664C414.581 44.9173 414.826 44.288 415.317 43.776C415.807 43.264 416.437 43.008 417.205 43.008C417.951 43.008 418.57 43.264 419.061 43.776C419.551 44.288 419.797 44.9173 419.797 45.664C419.797 46.4107 419.551 47.04 419.061 47.552C418.57 48.064 417.951 48.32 417.205 48.32ZM427.89 48L436.946 25.504H440.498L449.522 48H444.882L437.906 29.536H439.506L432.434 48H427.89ZM432.69 43.808V40.16H444.786V43.808H432.69ZM457.665 48.32C456.236 48.32 454.956 47.968 453.825 47.264C452.695 46.56 451.799 45.6 451.137 44.384C450.497 43.168 450.177 41.8027 450.177 40.288C450.177 38.752 450.497 37.376 451.137 36.16C451.799 34.944 452.684 33.984 453.793 33.28C454.924 32.576 456.215 32.224 457.665 32.224C458.775 32.224 459.767 32.448 460.641 32.896C461.537 33.344 462.252 33.9733 462.785 34.784C463.34 35.5733 463.639 36.4693 463.681 37.472V42.976C463.639 43.9787 463.351 44.8853 462.817 45.696C462.284 46.5067 461.569 47.1467 460.673 47.616C459.777 48.0853 458.775 48.32 457.665 48.32ZM458.369 44.448C459.159 44.448 459.841 44.2773 460.417 43.936C461.015 43.5733 461.473 43.0827 461.793 42.464C462.135 41.824 462.305 41.088 462.305 40.256C462.305 39.4453 462.135 38.7307 461.793 38.112C461.473 37.472 461.015 36.9813 460.417 36.64C459.841 36.2773 459.169 36.096 458.401 36.096C457.612 36.096 456.919 36.2773 456.321 36.64C455.745 37.0027 455.287 37.4933 454.945 38.112C454.625 38.7307 454.465 39.4453 454.465 40.256C454.465 41.088 454.625 41.824 454.945 42.464C455.287 43.0827 455.756 43.5733 456.353 43.936C456.951 44.2773 457.623 44.448 458.369 44.448ZM466.241 48H462.081V43.84L462.753 40.064L462.049 36.352V24.864H466.241V48ZM474.974 48L468.158 32.544H472.766L477.662 45.28H475.39L480.318 32.544H484.766L477.982 48H474.974ZM493.495 48.32C491.938 48.32 490.53 47.968 489.271 47.264C488.034 46.5387 487.042 45.568 486.295 44.352C485.57 43.1147 485.207 41.7387 485.207 40.224C485.207 38.7093 485.57 37.3547 486.295 36.16C487.02 34.944 488.012 33.984 489.271 33.28C490.53 32.5547 491.927 32.192 493.463 32.192C495.042 32.192 496.45 32.5547 497.687 33.28C498.946 33.984 499.938 34.944 500.663 36.16C501.388 37.3547 501.751 38.7093 501.751 40.224C501.751 41.7387 501.388 43.1147 500.663 44.352C499.938 45.568 498.946 46.5387 497.687 47.264C496.45 47.968 495.052 48.32 493.495 48.32ZM493.463 44.416C494.252 44.416 494.946 44.2453 495.543 43.904C496.162 43.5413 496.631 43.0507 496.951 42.432C497.292 41.792 497.463 41.0667 497.463 40.256C497.463 39.4453 497.292 38.7307 496.951 38.112C496.61 37.4933 496.14 37.0133 495.543 36.672C494.946 36.3093 494.252 36.128 493.463 36.128C492.695 36.128 492.012 36.3093 491.415 36.672C490.818 37.0133 490.348 37.4933 490.007 38.112C489.666 38.7307 489.495 39.4453 489.495 40.256C489.495 41.0667 489.666 41.792 490.007 42.432C490.348 43.0507 490.818 43.5413 491.415 43.904C492.012 44.2453 492.695 44.416 493.463 44.416ZM511.746 48.32C510.167 48.32 508.748 47.968 507.49 47.264C506.231 46.56 505.239 45.6 504.514 44.384C503.788 43.168 503.426 41.8027 503.426 40.288C503.426 38.752 503.788 37.376 504.514 36.16C505.239 34.944 506.231 33.984 507.49 33.28C508.77 32.5547 510.188 32.192 511.746 32.192C512.962 32.192 514.082 32.416 515.106 32.864C516.13 33.312 517.015 33.952 517.762 34.784L515.074 37.504C514.668 37.056 514.178 36.7147 513.602 36.48C513.047 36.2453 512.428 36.128 511.746 36.128C510.978 36.128 510.284 36.3093 509.666 36.672C509.068 37.0133 508.588 37.4933 508.226 38.112C507.884 38.7093 507.714 39.424 507.714 40.256C507.714 41.0667 507.884 41.792 508.226 42.432C508.588 43.0507 509.068 43.5413 509.666 43.904C510.284 44.2453 510.978 44.416 511.746 44.416C512.45 44.416 513.079 44.2987 513.634 44.064C514.21 43.808 514.7 43.4453 515.106 42.976L517.826 45.696C517.036 46.5493 516.13 47.2 515.106 47.648C514.082 48.096 512.962 48.32 511.746 48.32ZM526.32 48.32C524.912 48.32 523.643 47.968 522.512 47.264C521.381 46.56 520.496 45.6 519.856 44.384C519.216 43.168 518.896 41.8027 518.896 40.288C518.896 38.752 519.216 37.376 519.856 36.16C520.496 34.944 521.381 33.984 522.512 33.28C523.643 32.576 524.912 32.224 526.32 32.224C527.429 32.224 528.421 32.448 529.296 32.896C530.171 33.344 530.864 33.9733 531.376 34.784C531.909 35.5733 532.197 36.4693 532.24 37.472V43.04C532.197 44.064 531.909 44.9707 531.376 45.76C530.864 46.5493 530.171 47.1787 529.296 47.648C528.421 48.096 527.429 48.32 526.32 48.32ZM527.088 44.448C528.261 44.448 529.211 44.064 529.936 43.296C530.661 42.5067 531.024 41.4933 531.024 40.256C531.024 39.4453 530.853 38.7307 530.512 38.112C530.192 37.472 529.733 36.9813 529.136 36.64C528.56 36.2773 527.877 36.096 527.088 36.096C526.32 36.096 525.637 36.2773 525.04 36.64C524.464 36.9813 524.005 37.472 523.664 38.112C523.344 38.7307 523.184 39.4453 523.184 40.256C523.184 41.088 523.344 41.824 523.664 42.464C524.005 43.0827 524.464 43.5733 525.04 43.936C525.637 44.2773 526.32 44.448 527.088 44.448ZM530.8 48V43.84L531.472 40.064L530.8 36.352V32.544H534.96V48H530.8ZM540.941 48V26.112H545.133V48H540.941ZM537.325 36.224V32.544H548.749V36.224H537.325ZM558.123 48.32C556.502 48.32 555.062 47.9787 553.803 47.296C552.544 46.592 551.542 45.632 550.795 44.416C550.07 43.2 549.707 41.8133 549.707 40.256C549.707 38.72 550.059 37.3547 550.763 36.16C551.488 34.944 552.47 33.984 553.707 33.28C554.944 32.5547 556.32 32.192 557.835 32.192C559.328 32.192 560.64 32.5333 561.771 33.216C562.923 33.8773 563.819 34.7947 564.459 35.968C565.12 37.12 565.451 38.432 565.451 39.904C565.451 40.1813 565.43 40.4693 565.387 40.768C565.366 41.0453 565.312 41.3653 565.227 41.728L552.235 41.76V38.624L563.275 38.592L561.579 39.904C561.536 38.9867 561.366 38.2187 561.067 37.6C560.79 36.9813 560.374 36.512 559.819 36.192C559.286 35.8507 558.624 35.68 557.835 35.68C557.003 35.68 556.278 35.872 555.659 36.256C555.04 36.6187 554.56 37.1413 554.219 37.824C553.899 38.4853 553.739 39.2747 553.739 40.192C553.739 41.1307 553.91 41.952 554.251 42.656C554.614 43.3387 555.126 43.872 555.787 44.256C556.448 44.6187 557.216 44.8 558.091 44.8C558.88 44.8 559.595 44.672 560.235 44.416C560.875 44.1387 561.43 43.7333 561.899 43.2L564.363 45.664C563.616 46.5387 562.699 47.2 561.611 47.648C560.544 48.096 559.382 48.32 558.123 48.32ZM573.356 48.352C572.481 48.352 571.617 48.2347 570.764 48C569.932 47.7653 569.164 47.4453 568.46 47.04C567.756 46.6133 567.148 46.1013 566.636 45.504L569.132 42.976C569.665 43.5733 570.284 44.0213 570.988 44.32C571.692 44.6187 572.47 44.768 573.324 44.768C574.006 44.768 574.518 44.672 574.86 44.48C575.222 44.288 575.404 44 575.404 43.616C575.404 43.1893 575.212 42.8587 574.828 42.624C574.465 42.3893 573.985 42.1973 573.388 42.048C572.79 41.8773 572.161 41.696 571.5 41.504C570.86 41.2907 570.241 41.024 569.644 40.704C569.046 40.3627 568.556 39.904 568.172 39.328C567.809 38.7307 567.628 37.9627 567.628 37.024C567.628 36.0427 567.862 35.1893 568.332 34.464C568.822 33.7387 569.516 33.1733 570.411 32.768C571.308 32.3627 572.364 32.16 573.58 32.16C574.86 32.16 576.012 32.384 577.036 32.832C578.081 33.28 578.945 33.952 579.628 34.848L577.1 37.376C576.63 36.8 576.097 36.384 575.5 36.128C574.924 35.872 574.294 35.744 573.612 35.744C572.993 35.744 572.513 35.84 572.172 36.032C571.852 36.224 571.692 36.4907 571.692 36.832C571.692 37.216 571.873 37.5147 572.236 37.728C572.62 37.9413 573.11 38.1333 573.708 38.304C574.305 38.4533 574.924 38.6347 575.564 38.848C576.225 39.04 576.844 39.3173 577.42 39.68C578.017 40.0427 578.497 40.5227 578.86 41.12C579.244 41.7173 579.436 42.4853 579.436 43.424C579.436 44.9387 578.892 46.144 577.804 47.04C576.716 47.9147 575.233 48.352 573.356 48.352Z" fill="white"/>
<rect x="75" width="7" height="70" fill="white"/>
<defs>
<clipPath id="clip0_1118_198">
<rect width="50" height="50" fill="white" transform="translate(0 10)"/>
</clipPath>
</defs>
</svg>
